  0
SECTION
  2
HEADER
  9
$ACADVER
  1
AC1009
  9
$FILLMODE
 70
0
  9
$EXTMIN
 10
0.010000
 20
-0.090000
 30
0.000000
  9
$EXTMAX
 10
9.376000
 20
6.059000
 30
0.000000
  0
ENDSEC
  0
SECTION
  2
TABLES
  0
TABLE
  2
LTYPE
 70
1
  0
LTYPE
  2
CONTINUOUS
 70
64
  3
Solid line
 72
65
 73
0
 40
0
  0
ENDTAB
  0
TABLE
  2
LAYER
 70
255
  0
LAYER
  2
20
 70
64
 62
253
  6
CONTINUOUS
  0
ENDTAB
  0
ENDSEC
  0
SECTION
  2
BLOCKS
  0
BLOCK
  8
0
  2
RECT
 70
64
 10
0.000000
 20
0.000000
 30
0.000000
  3
RECT
  0
SOLID
  8
0
 10
-0.500000
 20
-0.500000
 30
0.000000
 11
0.500000
 21
-0.500000
 31
0.000000
 12
-0.500000
 22
0.500000
 32
0.000000
 13
0.500000
 23
0.500000
 33
0.000000
  0
ENDBLK
  8
0
  0
BLOCK
  8
0
  2
PIE
 70
64
 10
0.000000
 20
0.000000
 30
0.000000
  3
PIE
  0
CIRCLE
  8
0
 10
0.000000
 20
0.000000
 30
0.000000
 40
0.500000
  0
ENDBLK
  8
0
  0
BLOCK
  8
0
  2
OCTAGONP
 70
64
 10
0.000000
 20
0.000000
 30
0.000000
  3
OCTAGONP
  0
POLYLINE
  8
0
 66
1
 10
0.000000
 20
0.000000
 30
0.000000
 40
0.000000
 41
0.000000
 70
1
  0
VERTEX
  8
0
 10
-0.500000
 20
-0.207107
 30
0.000000
  0
VERTEX
  8
0
 10
-0.500000
 20
0.207107
 30
0.000000
  0
VERTEX
  8
0
 10
-0.207107
 20
0.500000
 30
0.000000
  0
VERTEX
  8
0
 10
0.207107
 20
0.500000
 30
0.000000
  0
VERTEX
  8
0
 10
0.500000
 20
0.207107
 30
0.000000
  0
VERTEX
  8
0
 10
0.500000
 20
-0.207107
 30
0.000000
  0
VERTEX
  8
0
 10
0.207107
 20
-0.500000
 30
0.000000
  0
VERTEX
  8
0
 10
-0.207107
 20
-0.500000
 30
0.000000
  0
SEQEND
  8
0
  0
ENDBLK
  8
0
  0
BLOCK
  8
0
  2
SQUAREP
 70
64
 10
0.000000
 20
0.000000
 30
0.000000
  3
SQUAREP
  0
SOLID
  8
0
 10
-0.500000
 20
-0.500000
 30
0.000000
 11
0.500000
 21
-0.500000
 31
0.000000
 12
-0.500000
 22
0.500000
 32
0.000000
 13
0.500000
 23
0.500000
 33
0.000000
  0
ENDBLK
  8
0
  0
BLOCK
  8
0
  2
ROUNDP
 70
64
 10
0.000000
 20
0.000000
 30
0.000000
  3
ROUNDP
  0
CIRCLE
  8
0
 10
0.000000
 20
0.000000
 30
0.000000
 40
0.500000
  0
ENDBLK
  8
0
  0
BLOCK
  8
0
  2
ANNULUSP
 70
64
 10
0.000000
 20
0.000000
 30
0.000000
  3
ANNULUSP
  0
CIRCLE
  8
0
 10
0.000000
 20
0.000000
 30
0.000000
 40
0.500000
  0
ENDBLK
  8
0
  0
BLOCK
  8
0
  2
THERMALP
 70
64
 10
0.000000
 20
0.000000
 30
0.000000
  3
THERMALP
  0
LINE
  8
0
 10
-0.237868
 20
0.450000
 30
0.000000
 11
0.237868
 21
0.450000
 31
0.000000
  0
LINE
  8
0
 10
0.450000
 20
0.237868
 30
0.000000
 11
0.450000
 21
-0.237868
 31
0.000000
  0
LINE
  8
0
 10
0.237868
 20
-0.450000
 30
0.000000
 11
-0.237868
 21
-0.450000
 31
0.000000
  0
LINE
  8
0
 10
-0.450000
 20
-0.237868
 30
0.000000
 11
-0.450000
 21
0.237868
 31
0.000000
  0
ENDBLK
  8
0
  0
BLOCK
  8
0
  2
OCTAGONV
 70
64
 10
0.000000
 20
0.000000
 30
0.000000
  3
OCTAGONV
  0
POLYLINE
  8
0
 66
1
 10
0.000000
 20
0.000000
 30
0.000000
 40
0.000000
 41
0.000000
 70
1
  0
VERTEX
  8
0
 10
-0.500000
 20
-0.207107
 30
0.000000
  0
VERTEX
  8
0
 10
-0.500000
 20
0.207107
 30
0.000000
  0
VERTEX
  8
0
 10
-0.207107
 20
0.500000
 30
0.000000
  0
VERTEX
  8
0
 10
0.207107
 20
0.500000
 30
0.000000
  0
VERTEX
  8
0
 10
0.500000
 20
0.207107
 30
0.000000
  0
VERTEX
  8
0
 10
0.500000
 20
-0.207107
 30
0.000000
  0
VERTEX
  8
0
 10
0.207107
 20
-0.500000
 30
0.000000
  0
VERTEX
  8
0
 10
-0.207107
 20
-0.500000
 30
0.000000
  0
SEQEND
  8
0
  0
ENDBLK
  8
0
  0
BLOCK
  8
0
  2
SQUAREV
 70
64
 10
0.000000
 20
0.000000
 30
0.000000
  3
SQUAREV
  0
SOLID
  8
0
 10
-0.500000
 20
-0.500000
 30
0.000000
 11
0.500000
 21
-0.500000
 31
0.000000
 12
-0.500000
 22
0.500000
 32
0.000000
 13
0.500000
 23
0.500000
 33
0.000000
  0
ENDBLK
  8
0
  0
BLOCK
  8
0
  2
ROUNDV
 70
64
 10
0.000000
 20
0.000000
 30
0.000000
  3
ROUNDV
  0
CIRCLE
  8
0
 10
0.000000
 20
0.000000
 30
0.000000
 40
0.500000
  0
ENDBLK
  8
0
  0
BLOCK
  8
0
  2
ANNULUSV
 70
64
 10
0.000000
 20
0.000000
 30
0.000000
  3
ANNULUSV
  0
CIRCLE
  8
0
 10
0.000000
 20
0.000000
 30
0.000000
 40
0.500000
  0
ENDBLK
  8
0
  0
BLOCK
  8
0
  2
THERMALV
 70
64
 10
0.000000
 20
0.000000
 30
0.000000
  3
THERMALV
  0
LINE
  8
0
 10
-0.237868
 20
0.450000
 30
0.000000
 11
0.237868
 21
0.450000
 31
0.000000
  0
LINE
  8
0
 10
0.450000
 20
0.237868
 30
0.000000
 11
0.450000
 21
-0.237868
 31
0.000000
  0
LINE
  8
0
 10
0.237868
 20
-0.450000
 30
0.000000
 11
-0.237868
 21
-0.450000
 31
0.000000
  0
LINE
  8
0
 10
-0.450000
 20
-0.237868
 30
0.000000
 11
-0.450000
 21
0.237868
 31
0.000000
  0
ENDBLK
  8
0
  0
ENDSEC
  0
SECTION
  2
ENTITIES
  0
LINE
  8
20
 10
8.572000
 20
0.383000
 30
0.000000
 11
8.572000
 21
0.413000
 31
0.000000
  0
LINE
  8
20
 10
8.572000
 20
0.413000
 30
0.000000
 11
5.920000
 21
0.730000
 31
0.000000
  0
LINE
  8
20
 10
5.920000
 20
0.730000
 30
0.000000
 11
4.780000
 21
0.855000
 31
0.000000
  0
ARC
  8
20
 10
2.516398
 20
-19.789055
 30
0.000000
 40
20.767785
 50
83.742566
 51
88.914034
  0
LINE
  8
20
 10
2.910000
 20
0.975000
 30
0.000000
 11
2.571000
 21
0.975000
 31
0.000000
  0
LINE
  8
20
 10
2.571000
 20
0.975000
 30
0.000000
 11
2.145000
 21
0.965000
 31
0.000000
  0
LINE
  8
20
 10
2.145000
 20
0.965000
 30
0.000000
 11
2.017000
 21
0.960000
 31
0.000000
  0
LINE
  8
20
 10
1.802000
 20
0.947000
 30
0.000000
 11
1.325000
 21
0.890000
 31
0.000000
  0
ARC
  8
20
 10
1.778605
 20
-2.687907
 30
0.000000
 40
3.606546
 50
97.225373
 51
111.616173
  0
ARC
  8
20
 10
1.028547
 20
-0.795040
 30
0.000000
 40
1.570488
 50
111.616172
 51
123.139233
  0
ARC
  8
20
 10
0.268899
 20
0.368517
 30
0.000000
 40
0.180909
 50
123.139235
 51
151.441985
  0
ARC
  8
20
 10
0.175720
 20
0.419231
 30
0.000000
 40
0.074824
 50
151.442014
 51
232.335303
  0
LINE
  8
20
 10
0.130000
 20
0.360000
 30
0.000000
 11
0.165500
 21
0.336300
 31
0.000000
  0
LINE
  8
20
 10
0.165500
 20
0.336300
 30
0.000000
 11
0.281100
 21
0.283600
 31
0.000000
  0
LINE
  8
20
 10
0.281100
 20
0.283600
 30
0.000000
 11
0.455700
 21
0.212700
 31
0.000000
  0
LINE
  8
20
 10
0.455700
 20
0.212700
 30
0.000000
 11
0.627700
 21
0.159900
 31
0.000000
  0
LINE
  8
20
 10
0.627700
 20
0.159900
 30
0.000000
 11
0.812700
 21
0.115200
 31
0.000000
  0
LINE
  8
20
 10
0.812700
 20
0.115200
 30
0.000000
 11
1.021300
 21
0.084100
 31
0.000000
  0
LINE
  8
20
 10
1.021300
 20
0.084100
 30
0.000000
 11
1.226000
 21
0.060600
 31
0.000000
  0
LINE
  8
20
 10
1.226000
 20
0.060600
 30
0.000000
 11
1.487900
 21
0.037400
 31
0.000000
  0
LINE
  8
20
 10
1.487900
 20
0.037400
 30
0.000000
 11
1.765200
 21
0.019400
 31
0.000000
  0
LINE
  8
20
 10
1.765200
 20
0.019400
 30
0.000000
 11
2.065600
 21
0.009100
 31
0.000000
  0
LINE
  8
20
 10
2.065600
 20
0.009100
 30
0.000000
 11
2.453300
 21
-0.001100
 31
0.000000
  0
LINE
  8
20
 10
2.453300
 20
-0.001100
 30
0.000000
 11
2.782000
 21
-0.002400
 31
0.000000
  0
LINE
  8
20
 10
2.782000
 20
-0.002400
 30
0.000000
 11
3.110700
 21
0.007900
 31
0.000000
  0
LINE
  8
20
 10
3.110700
 20
0.007900
 30
0.000000
 11
3.737200
 21
0.030300
 31
0.000000
  0
LINE
  8
20
 10
3.737200
 20
0.030300
 30
0.000000
 11
4.147000
 21
0.050300
 31
0.000000
  0
LINE
  8
20
 10
4.147000
 20
0.050300
 30
0.000000
 11
4.734100
 21
0.082800
 31
0.000000
  0
LINE
  8
20
 10
4.734100
 20
0.082800
 30
0.000000
 11
5.230200
 21
0.112100
 31
0.000000
  0
LINE
  8
20
 10
5.230200
 20
0.112100
 30
0.000000
 11
5.650700
 21
0.139900
 31
0.000000
  0
LINE
  8
20
 10
5.650700
 20
0.139900
 30
0.000000
 11
6.014300
 21
0.172300
 31
0.000000
  0
LINE
  8
20
 10
6.014300
 20
0.172300
 30
0.000000
 11
6.384100
 21
0.200100
 31
0.000000
  0
LINE
  8
20
 10
6.384100
 20
0.200100
 30
0.000000
 11
6.655300
 21
0.224800
 31
0.000000
  0
LINE
  8
20
 10
6.655300
 20
0.224800
 30
0.000000
 11
6.915700
 21
0.246400
 31
0.000000
  0
LINE
  8
20
 10
6.915700
 20
0.246400
 30
0.000000
 11
8.572000
 21
0.383000
 31
0.000000
  0
LINE
  8
20
 10
6.075000
 20
0.525000
 30
0.000000
 11
6.075000
 21
0.400000
 31
0.000000
  0
LINE
  8
20
 10
6.075000
 20
0.400000
 30
0.000000
 11
6.325000
 21
0.400000
 31
0.000000
  0
LINE
  8
20
 10
6.325000
 20
0.400000
 30
0.000000
 11
6.325000
 21
0.525000
 31
0.000000
  0
LINE
  8
20
 10
6.325000
 20
0.525000
 30
0.000000
 11
6.075000
 21
0.525000
 31
0.000000
  0
LINE
  8
20
 10
1.300000
 20
4.950000
 30
0.000000
 11
1.425000
 21
4.950000
 31
0.000000
  0
LINE
  8
20
 10
1.425000
 20
4.950000
 30
0.000000
 11
1.425000
 21
4.700000
 31
0.000000
  0
LINE
  8
20
 10
1.425000
 20
4.700000
 30
0.000000
 11
1.300000
 21
4.700000
 31
0.000000
  0
LINE
  8
20
 10
1.300000
 20
4.700000
 30
0.000000
 11
1.300000
 21
4.450000
 31
0.000000
  0
LINE
  8
20
 10
1.300000
 20
4.450000
 30
0.000000
 11
0.300000
 21
4.450000
 31
0.000000
  0
LINE
  8
20
 10
0.300000
 20
4.450000
 30
0.000000
 11
0.300000
 21
4.700000
 31
0.000000
  0
LINE
  8
20
 10
0.300000
 20
4.700000
 30
0.000000
 11
0.175000
 21
4.700000
 31
0.000000
  0
LINE
  8
20
 10
0.175000
 20
4.700000
 30
0.000000
 11
0.175000
 21
4.950000
 31
0.000000
  0
LINE
  8
20
 10
0.175000
 20
4.950000
 30
0.000000
 11
0.300000
 21
4.950000
 31
0.000000
  0
LINE
  8
20
 10
0.300000
 20
4.950000
 30
0.000000
 11
0.300000
 21
5.200000
 31
0.000000
  0
LINE
  8
20
 10
0.300000
 20
5.200000
 30
0.000000
 11
1.300000
 21
5.200000
 31
0.000000
  0
LINE
  8
20
 10
1.300000
 20
5.200000
 30
0.000000
 11
1.300000
 21
4.950000
 31
0.000000
  0
LINE
  8
20
 10
2.656000
 20
0.626000
 30
0.000000
 11
2.656000
 21
0.376000
 31
0.000000
  0
LINE
  8
20
 10
2.656000
 20
0.376000
 30
0.000000
 11
3.406000
 21
0.376000
 31
0.000000
  0
LINE
  8
20
 10
3.406000
 20
0.376000
 30
0.000000
 11
3.406000
 21
0.626000
 31
0.000000
  0
LINE
  8
20
 10
3.406000
 20
0.626000
 30
0.000000
 11
2.656000
 21
0.626000
 31
0.000000
  0
LINE
  8
20
 10
3.175000
 20
0.750000
 30
0.000000
 11
2.925000
 21
0.750000
 31
0.000000
  0
LINE
  8
20
 10
2.925000
 20
0.750000
 30
0.000000
 11
2.925000
 21
0.875000
 31
0.000000
  0
LINE
  8
20
 10
2.925000
 20
0.875000
 30
0.000000
 11
3.175000
 21
0.875000
 31
0.000000
  0
LINE
  8
20
 10
3.175000
 20
0.875000
 30
0.000000
 11
3.175000
 21
0.750000
 31
0.000000
  0
LINE
  8
20
 10
3.175000
 20
0.125000
 30
0.000000
 11
2.925000
 21
0.125000
 31
0.000000
  0
LINE
  8
20
 10
2.925000
 20
0.125000
 30
0.000000
 11
2.925000
 21
0.250000
 31
0.000000
  0
LINE
  8
20
 10
2.925000
 20
0.250000
 30
0.000000
 11
3.175000
 21
0.250000
 31
0.000000
  0
LINE
  8
20
 10
3.175000
 20
0.250000
 30
0.000000
 11
3.175000
 21
0.125000
 31
0.000000
  0
LINE
  8
20
 10
1.300000
 20
0.375000
 30
0.000000
 11
1.300000
 21
0.625000
 31
0.000000
  0
LINE
  8
20
 10
1.300000
 20
0.625000
 30
0.000000
 11
1.175000
 21
0.625000
 31
0.000000
  0
LINE
  8
20
 10
1.175000
 20
0.625000
 30
0.000000
 11
1.175000
 21
0.375000
 31
0.000000
  0
LINE
  8
20
 10
1.175000
 20
0.375000
 30
0.000000
 11
1.300000
 21
0.375000
 31
0.000000
  0
LINE
  8
20
 10
4.675000
 20
0.375000
 30
0.000000
 11
4.675000
 21
0.625000
 31
0.000000
  0
LINE
  8
20
 10
4.675000
 20
0.625000
 30
0.000000
 11
4.550000
 21
0.625000
 31
0.000000
  0
LINE
  8
20
 10
4.550000
 20
0.625000
 30
0.000000
 11
4.550000
 21
0.375000
 31
0.000000
  0
LINE
  8
20
 10
4.550000
 20
0.375000
 30
0.000000
 11
4.675000
 21
0.375000
 31
0.000000
  0
LINE
  8
20
 10
3.800000
 20
0.400000
 30
0.000000
 11
3.800000
 21
0.565000
 31
0.000000
  0
LINE
  8
20
 10
3.800000
 20
0.565000
 30
0.000000
 11
4.245000
 21
0.565000
 31
0.000000
  0
LINE
  8
20
 10
4.245000
 20
0.565000
 30
0.000000
 11
4.245000
 21
0.400000
 31
0.000000
  0
LINE
  8
20
 10
4.245000
 20
0.400000
 30
0.000000
 11
3.800000
 21
0.400000
 31
0.000000
  0
LINE
  8
20
 10
2.017000
 20
0.960000
 30
0.000000
 11
1.802000
 21
0.947000
 31
0.000000
  0
LINE
  8
20
 10
8.572000
 20
1.508000
 30
0.000000
 11
8.572000
 21
1.538000
 31
0.000000
  0
LINE
  8
20
 10
8.572000
 20
1.538000
 30
0.000000
 11
5.920000
 21
1.855000
 31
0.000000
  0
LINE
  8
20
 10
5.920000
 20
1.855000
 30
0.000000
 11
4.780000
 21
1.980000
 31
0.000000
  0
ARC
  8
20
 10
2.516398
 20
-18.664055
 30
0.000000
 40
20.767785
 50
83.742566
 51
88.914034
  0
LINE
  8
20
 10
2.910000
 20
2.100000
 30
0.000000
 11
2.571000
 21
2.100000
 31
0.000000
  0
LINE
  8
20
 10
2.571000
 20
2.100000
 30
0.000000
 11
2.145000
 21
2.090000
 31
0.000000
  0
LINE
  8
20
 10
2.145000
 20
2.090000
 30
0.000000
 11
2.017000
 21
2.085000
 31
0.000000
  0
LINE
  8
20
 10
1.802000
 20
2.072000
 30
0.000000
 11
1.325000
 21
2.015000
 31
0.000000
  0
ARC
  8
20
 10
1.778605
 20
-1.562907
 30
0.000000
 40
3.606546
 50
97.225373
 51
111.616173
  0
ARC
  8
20
 10
1.028547
 20
0.329960
 30
0.000000
 40
1.570488
 50
111.616172
 51
123.139233
  0
ARC
  8
20
 10
0.268899
 20
1.493517
 30
0.000000
 40
0.180909
 50
123.139235
 51
151.441985
  0
ARC
  8
20
 10
0.175720
 20
1.544231
 30
0.000000
 40
0.074824
 50
151.442014
 51
232.335303
  0
LINE
  8
20
 10
0.130000
 20
1.485000
 30
0.000000
 11
0.165500
 21
1.461300
 31
0.000000
  0
LINE
  8
20
 10
0.165500
 20
1.461300
 30
0.000000
 11
0.281100
 21
1.408600
 31
0.000000
  0
LINE
  8
20
 10
0.281100
 20
1.408600
 30
0.000000
 11
0.455700
 21
1.337700
 31
0.000000
  0
LINE
  8
20
 10
0.455700
 20
1.337700
 30
0.000000
 11
0.627700
 21
1.284900
 31
0.000000
  0
LINE
  8
20
 10
0.627700
 20
1.284900
 30
0.000000
 11
0.812700
 21
1.240200
 31
0.000000
  0
LINE
  8
20
 10
0.812700
 20
1.240200
 30
0.000000
 11
1.021300
 21
1.209100
 31
0.000000
  0
LINE
  8
20
 10
1.021300
 20
1.209100
 30
0.000000
 11
1.226000
 21
1.185600
 31
0.000000
  0
LINE
  8
20
 10
1.226000
 20
1.185600
 30
0.000000
 11
1.487900
 21
1.162400
 31
0.000000
  0
LINE
  8
20
 10
1.487900
 20
1.162400
 30
0.000000
 11
1.765200
 21
1.144400
 31
0.000000
  0
LINE
  8
20
 10
1.765200
 20
1.144400
 30
0.000000
 11
2.065600
 21
1.134100
 31
0.000000
  0
LINE
  8
20
 10
2.065600
 20
1.134100
 30
0.000000
 11
2.453300
 21
1.123900
 31
0.000000
  0
LINE
  8
20
 10
2.453300
 20
1.123900
 30
0.000000
 11
2.782000
 21
1.122600
 31
0.000000
  0
LINE
  8
20
 10
2.782000
 20
1.122600
 30
0.000000
 11
3.110700
 21
1.132900
 31
0.000000
  0
LINE
  8
20
 10
3.110700
 20
1.132900
 30
0.000000
 11
3.737200
 21
1.155300
 31
0.000000
  0
LINE
  8
20
 10
3.737200
 20
1.155300
 30
0.000000
 11
4.147000
 21
1.175300
 31
0.000000
  0
LINE
  8
20
 10
4.147000
 20
1.175300
 30
0.000000
 11
4.734100
 21
1.207800
 31
0.000000
  0
LINE
  8
20
 10
4.734100
 20
1.207800
 30
0.000000
 11
5.230200
 21
1.237100
 31
0.000000
  0
LINE
  8
20
 10
5.230200
 20
1.237100
 30
0.000000
 11
5.650700
 21
1.264900
 31
0.000000
  0
LINE
  8
20
 10
5.650700
 20
1.264900
 30
0.000000
 11
6.014300
 21
1.297300
 31
0.000000
  0
LINE
  8
20
 10
6.014300
 20
1.297300
 30
0.000000
 11
6.384100
 21
1.325100
 31
0.000000
  0
LINE
  8
20
 10
6.384100
 20
1.325100
 30
0.000000
 11
6.655300
 21
1.349800
 31
0.000000
  0
LINE
  8
20
 10
6.655300
 20
1.349800
 30
0.000000
 11
6.915700
 21
1.371400
 31
0.000000
  0
LINE
  8
20
 10
6.915700
 20
1.371400
 30
0.000000
 11
8.572000
 21
1.508000
 31
0.000000
  0
LINE
  8
20
 10
6.075000
 20
1.650000
 30
0.000000
 11
6.075000
 21
1.525000
 31
0.000000
  0
LINE
  8
20
 10
6.075000
 20
1.525000
 30
0.000000
 11
6.325000
 21
1.525000
 31
0.000000
  0
LINE
  8
20
 10
6.325000
 20
1.525000
 30
0.000000
 11
6.325000
 21
1.650000
 31
0.000000
  0
LINE
  8
20
 10
6.325000
 20
1.650000
 30
0.000000
 11
6.075000
 21
1.650000
 31
0.000000
  0
LINE
  8
20
 10
2.656000
 20
1.751000
 30
0.000000
 11
2.656000
 21
1.501000
 31
0.000000
  0
LINE
  8
20
 10
2.656000
 20
1.501000
 30
0.000000
 11
3.406000
 21
1.501000
 31
0.000000
  0
LINE
  8
20
 10
3.406000
 20
1.501000
 30
0.000000
 11
3.406000
 21
1.751000
 31
0.000000
  0
LINE
  8
20
 10
3.406000
 20
1.751000
 30
0.000000
 11
2.656000
 21
1.751000
 31
0.000000
  0
LINE
  8
20
 10
3.175000
 20
1.875000
 30
0.000000
 11
2.925000
 21
1.875000
 31
0.000000
  0
LINE
  8
20
 10
2.925000
 20
1.875000
 30
0.000000
 11
2.925000
 21
2.000000
 31
0.000000
  0
LINE
  8
20
 10
2.925000
 20
2.000000
 30
0.000000
 11
3.175000
 21
2.000000
 31
0.000000
  0
LINE
  8
20
 10
3.175000
 20
2.000000
 30
0.000000
 11
3.175000
 21
1.875000
 31
0.000000
  0
LINE
  8
20
 10
3.175000
 20
1.250000
 30
0.000000
 11
2.925000
 21
1.250000
 31
0.000000
  0
LINE
  8
20
 10
2.925000
 20
1.250000
 30
0.000000
 11
2.925000
 21
1.375000
 31
0.000000
  0
LINE
  8
20
 10
2.925000
 20
1.375000
 30
0.000000
 11
3.175000
 21
1.375000
 31
0.000000
  0
LINE
  8
20
 10
3.175000
 20
1.375000
 30
0.000000
 11
3.175000
 21
1.250000
 31
0.000000
  0
LINE
  8
20
 10
1.300000
 20
1.500000
 30
0.000000
 11
1.300000
 21
1.750000
 31
0.000000
  0
LINE
  8
20
 10
1.300000
 20
1.750000
 30
0.000000
 11
1.175000
 21
1.750000
 31
0.000000
  0
LINE
  8
20
 10
1.175000
 20
1.750000
 30
0.000000
 11
1.175000
 21
1.500000
 31
0.000000
  0
LINE
  8
20
 10
1.175000
 20
1.500000
 30
0.000000
 11
1.300000
 21
1.500000
 31
0.000000
  0
LINE
  8
20
 10
4.675000
 20
1.500000
 30
0.000000
 11
4.675000
 21
1.750000
 31
0.000000
  0
LINE
  8
20
 10
4.675000
 20
1.750000
 30
0.000000
 11
4.550000
 21
1.750000
 31
0.000000
  0
LINE
  8
20
 10
4.550000
 20
1.750000
 30
0.000000
 11
4.550000
 21
1.500000
 31
0.000000
  0
LINE
  8
20
 10
4.550000
 20
1.500000
 30
0.000000
 11
4.675000
 21
1.500000
 31
0.000000
  0
LINE
  8
20
 10
3.800000
 20
1.525000
 30
0.000000
 11
3.800000
 21
1.690000
 31
0.000000
  0
LINE
  8
20
 10
3.800000
 20
1.690000
 30
0.000000
 11
4.245000
 21
1.690000
 31
0.000000
  0
LINE
  8
20
 10
4.245000
 20
1.690000
 30
0.000000
 11
4.245000
 21
1.525000
 31
0.000000
  0
LINE
  8
20
 10
4.245000
 20
1.525000
 30
0.000000
 11
3.800000
 21
1.525000
 31
0.000000
  0
LINE
  8
20
 10
2.017000
 20
2.085000
 30
0.000000
 11
1.802000
 21
2.072000
 31
0.000000
  0
LINE
  8
20
 10
8.572000
 20
2.633000
 30
0.000000
 11
8.572000
 21
2.663000
 31
0.000000
  0
LINE
  8
20
 10
8.572000
 20
2.663000
 30
0.000000
 11
5.920000
 21
2.980000
 31
0.000000
  0
LINE
  8
20
 10
5.920000
 20
2.980000
 30
0.000000
 11
4.780000
 21
3.105000
 31
0.000000
  0
ARC
  8
20
 10
2.516398
 20
-17.539055
 30
0.000000
 40
20.767785
 50
83.742566
 51
88.914034
  0
LINE
  8
20
 10
2.910000
 20
3.225000
 30
0.000000
 11
2.571000
 21
3.225000
 31
0.000000
  0
LINE
  8
20
 10
2.571000
 20
3.225000
 30
0.000000
 11
2.145000
 21
3.215000
 31
0.000000
  0
LINE
  8
20
 10
2.145000
 20
3.215000
 30
0.000000
 11
2.017000
 21
3.210000
 31
0.000000
  0
LINE
  8
20
 10
1.802000
 20
3.197000
 30
0.000000
 11
1.325000
 21
3.140000
 31
0.000000
  0
ARC
  8
20
 10
1.778605
 20
-0.437907
 30
0.000000
 40
3.606546
 50
97.225373
 51
111.616173
  0
ARC
  8
20
 10
1.028547
 20
1.454960
 30
0.000000
 40
1.570488
 50
111.616172
 51
123.139233
  0
ARC
  8
20
 10
0.268899
 20
2.618517
 30
0.000000
 40
0.180909
 50
123.139235
 51
151.441985
  0
ARC
  8
20
 10
0.175720
 20
2.669231
 30
0.000000
 40
0.074824
 50
151.442014
 51
232.335303
  0
LINE
  8
20
 10
0.130000
 20
2.610000
 30
0.000000
 11
0.165500
 21
2.586300
 31
0.000000
  0
LINE
  8
20
 10
0.165500
 20
2.586300
 30
0.000000
 11
0.281100
 21
2.533600
 31
0.000000
  0
LINE
  8
20
 10
0.281100
 20
2.533600
 30
0.000000
 11
0.455700
 21
2.462700
 31
0.000000
  0
LINE
  8
20
 10
0.455700
 20
2.462700
 30
0.000000
 11
0.627700
 21
2.409900
 31
0.000000
  0
LINE
  8
20
 10
0.627700
 20
2.409900
 30
0.000000
 11
0.812700
 21
2.365200
 31
0.000000
  0
LINE
  8
20
 10
0.812700
 20
2.365200
 30
0.000000
 11
1.021300
 21
2.334100
 31
0.000000
  0
LINE
  8
20
 10
1.021300
 20
2.334100
 30
0.000000
 11
1.226000
 21
2.310600
 31
0.000000
  0
LINE
  8
20
 10
1.226000
 20
2.310600
 30
0.000000
 11
1.487900
 21
2.287400
 31
0.000000
  0
LINE
  8
20
 10
1.487900
 20
2.287400
 30
0.000000
 11
1.765200
 21
2.269400
 31
0.000000
  0
LINE
  8
20
 10
1.765200
 20
2.269400
 30
0.000000
 11
2.065600
 21
2.259100
 31
0.000000
  0
LINE
  8
20
 10
2.065600
 20
2.259100
 30
0.000000
 11
2.453300
 21
2.248900
 31
0.000000
  0
LINE
  8
20
 10
2.453300
 20
2.248900
 30
0.000000
 11
2.782000
 21
2.247600
 31
0.000000
  0
LINE
  8
20
 10
2.782000
 20
2.247600
 30
0.000000
 11
3.110700
 21
2.257900
 31
0.000000
  0
LINE
  8
20
 10
3.110700
 20
2.257900
 30
0.000000
 11
3.737200
 21
2.280300
 31
0.000000
  0
LINE
  8
20
 10
3.737200
 20
2.280300
 30
0.000000
 11
4.147000
 21
2.300300
 31
0.000000
  0
LINE
  8
20
 10
4.147000
 20
2.300300
 30
0.000000
 11
4.734100
 21
2.332800
 31
0.000000
  0
LINE
  8
20
 10
4.734100
 20
2.332800
 30
0.000000
 11
5.230200
 21
2.362100
 31
0.000000
  0
LINE
  8
20
 10
5.230200
 20
2.362100
 30
0.000000
 11
5.650700
 21
2.389900
 31
0.000000
  0
LINE
  8
20
 10
5.650700
 20
2.389900
 30
0.000000
 11
6.014300
 21
2.422300
 31
0.000000
  0
LINE
  8
20
 10
6.014300
 20
2.422300
 30
0.000000
 11
6.384100
 21
2.450100
 31
0.000000
  0
LINE
  8
20
 10
6.384100
 20
2.450100
 30
0.000000
 11
6.655300
 21
2.474800
 31
0.000000
  0
LINE
  8
20
 10
6.655300
 20
2.474800
 30
0.000000
 11
6.915700
 21
2.496400
 31
0.000000
  0
LINE
  8
20
 10
6.915700
 20
2.496400
 30
0.000000
 11
8.572000
 21
2.633000
 31
0.000000
  0
LINE
  8
20
 10
3.406000
 20
2.876000
 30
0.000000
 11
2.656000
 21
2.876000
 31
0.000000
  0
LINE
  8
20
 10
2.017000
 20
3.210000
 30
0.000000
 11
1.802000
 21
3.197000
 31
0.000000
  0
LINE
  8
20
 10
2.656000
 20
2.752000
 30
0.000000
 11
3.406000
 21
2.752000
 31
0.000000
  0
LINE
  8
20
 10
8.572000
 20
3.758000
 30
0.000000
 11
8.572000
 21
3.788000
 31
0.000000
  0
LINE
  8
20
 10
8.572000
 20
3.788000
 30
0.000000
 11
5.920000
 21
4.105000
 31
0.000000
  0
LINE
  8
20
 10
5.920000
 20
4.105000
 30
0.000000
 11
4.780000
 21
4.230000
 31
0.000000
  0
ARC
  8
20
 10
2.516398
 20
-16.414055
 30
0.000000
 40
20.767785
 50
83.742566
 51
88.914034
  0
LINE
  8
20
 10
2.910000
 20
4.350000
 30
0.000000
 11
2.571000
 21
4.350000
 31
0.000000
  0
LINE
  8
20
 10
2.571000
 20
4.350000
 30
0.000000
 11
2.145000
 21
4.340000
 31
0.000000
  0
LINE
  8
20
 10
2.145000
 20
4.340000
 30
0.000000
 11
2.017000
 21
4.335000
 31
0.000000
  0
LINE
  8
20
 10
1.802000
 20
4.322000
 30
0.000000
 11
1.325000
 21
4.265000
 31
0.000000
  0
ARC
  8
20
 10
1.778605
 20
0.687093
 30
0.000000
 40
3.606546
 50
97.225373
 51
111.616173
  0
ARC
  8
20
 10
1.028547
 20
2.579960
 30
0.000000
 40
1.570488
 50
111.616172
 51
123.139233
  0
ARC
  8
20
 10
0.268899
 20
3.743517
 30
0.000000
 40
0.180909
 50
123.139235
 51
151.441985
  0
ARC
  8
20
 10
0.175720
 20
3.794231
 30
0.000000
 40
0.074824
 50
151.442014
 51
232.335303
  0
LINE
  8
20
 10
0.130000
 20
3.735000
 30
0.000000
 11
0.165500
 21
3.711300
 31
0.000000
  0
LINE
  8
20
 10
0.165500
 20
3.711300
 30
0.000000
 11
0.281100
 21
3.658600
 31
0.000000
  0
LINE
  8
20
 10
0.281100
 20
3.658600
 30
0.000000
 11
0.455700
 21
3.587700
 31
0.000000
  0
LINE
  8
20
 10
0.455700
 20
3.587700
 30
0.000000
 11
0.627700
 21
3.534900
 31
0.000000
  0
LINE
  8
20
 10
0.627700
 20
3.534900
 30
0.000000
 11
0.812700
 21
3.490200
 31
0.000000
  0
LINE
  8
20
 10
0.812700
 20
3.490200
 30
0.000000
 11
1.021300
 21
3.459100
 31
0.000000
  0
LINE
  8
20
 10
1.021300
 20
3.459100
 30
0.000000
 11
1.226000
 21
3.435600
 31
0.000000
  0
LINE
  8
20
 10
1.226000
 20
3.435600
 30
0.000000
 11
1.487900
 21
3.412400
 31
0.000000
  0
LINE
  8
20
 10
1.487900
 20
3.412400
 30
0.000000
 11
1.765200
 21
3.394400
 31
0.000000
  0
LINE
  8
20
 10
1.765200
 20
3.394400
 30
0.000000
 11
2.065600
 21
3.384100
 31
0.000000
  0
LINE
  8
20
 10
2.065600
 20
3.384100
 30
0.000000
 11
2.453300
 21
3.373900
 31
0.000000
  0
LINE
  8
20
 10
2.453300
 20
3.373900
 30
0.000000
 11
2.782000
 21
3.372600
 31
0.000000
  0
LINE
  8
20
 10
2.782000
 20
3.372600
 30
0.000000
 11
3.110700
 21
3.382900
 31
0.000000
  0
LINE
  8
20
 10
3.110700
 20
3.382900
 30
0.000000
 11
3.737200
 21
3.405300
 31
0.000000
  0
LINE
  8
20
 10
3.737200
 20
3.405300
 30
0.000000
 11
4.147000
 21
3.425300
 31
0.000000
  0
LINE
  8
20
 10
4.147000
 20
3.425300
 30
0.000000
 11
4.734100
 21
3.457800
 31
0.000000
  0
LINE
  8
20
 10
4.734100
 20
3.457800
 30
0.000000
 11
5.230200
 21
3.487100
 31
0.000000
  0
LINE
  8
20
 10
5.230200
 20
3.487100
 30
0.000000
 11
5.650700
 21
3.514900
 31
0.000000
  0
LINE
  8
20
 10
5.650700
 20
3.514900
 30
0.000000
 11
6.014300
 21
3.547300
 31
0.000000
  0
LINE
  8
20
 10
6.014300
 20
3.547300
 30
0.000000
 11
6.384100
 21
3.575100
 31
0.000000
  0
LINE
  8
20
 10
6.384100
 20
3.575100
 30
0.000000
 11
6.655300
 21
3.599800
 31
0.000000
  0
LINE
  8
20
 10
6.655300
 20
3.599800
 30
0.000000
 11
6.915700
 21
3.621400
 31
0.000000
  0
LINE
  8
20
 10
6.915700
 20
3.621400
 30
0.000000
 11
8.572000
 21
3.758000
 31
0.000000
  0
LINE
  8
20
 10
2.656000
 20
3.751000
 30
0.000000
 11
3.406000
 21
3.751000
 31
0.000000
  0
LINE
  8
20
 10
3.175000
 20
4.125000
 30
0.000000
 11
2.925000
 21
4.125000
 31
0.000000
  0
LINE
  8
20
 10
2.925000
 20
4.125000
 30
0.000000
 11
2.925000
 21
4.250000
 31
0.000000
  0
LINE
  8
20
 10
2.925000
 20
4.250000
 30
0.000000
 11
3.175000
 21
4.250000
 31
0.000000
  0
LINE
  8
20
 10
3.175000
 20
4.250000
 30
0.000000
 11
3.175000
 21
4.125000
 31
0.000000
  0
LINE
  8
20
 10
3.175000
 20
3.500000
 30
0.000000
 11
2.925000
 21
3.500000
 31
0.000000
  0
LINE
  8
20
 10
2.925000
 20
3.500000
 30
0.000000
 11
2.925000
 21
3.625000
 31
0.000000
  0
LINE
  8
20
 10
2.925000
 20
3.625000
 30
0.000000
 11
3.175000
 21
3.625000
 31
0.000000
  0
LINE
  8
20
 10
3.175000
 20
3.625000
 30
0.000000
 11
3.175000
 21
3.500000
 31
0.000000
  0
LINE
  8
20
 10
2.017000
 20
4.335000
 30
0.000000
 11
1.802000
 21
4.322000
 31
0.000000
  0
LINE
  8
20
 10
2.656000
 20
3.877000
 30
0.000000
 11
3.406000
 21
3.877000
 31
0.000000
  0
LINE
  8
20
 10
2.656000
 20
3.877000
 30
0.000000
 11
2.656000
 21
3.751000
 31
0.000000
  0
LINE
  8
20
 10
3.406000
 20
3.877000
 30
0.000000
 11
3.406000
 21
3.751000
 31
0.000000
  0
LINE
  8
20
 10
3.406000
 20
2.752000
 30
0.000000
 11
3.406000
 21
2.876000
 31
0.000000
  0
LINE
  8
20
 10
2.656000
 20
2.876000
 30
0.000000
 11
2.656000
 21
2.752000
 31
0.000000
  0
LINE
  8
20
 10
2.675000
 20
4.950000
 30
0.000000
 11
2.800000
 21
4.950000
 31
0.000000
  0
LINE
  8
20
 10
2.800000
 20
4.950000
 30
0.000000
 11
2.800000
 21
4.700000
 31
0.000000
  0
LINE
  8
20
 10
2.800000
 20
4.700000
 30
0.000000
 11
2.675000
 21
4.700000
 31
0.000000
  0
LINE
  8
20
 10
2.675000
 20
4.700000
 30
0.000000
 11
2.675000
 21
4.450000
 31
0.000000
  0
LINE
  8
20
 10
2.675000
 20
4.450000
 30
0.000000
 11
1.675000
 21
4.450000
 31
0.000000
  0
LINE
  8
20
 10
1.675000
 20
4.450000
 30
0.000000
 11
1.675000
 21
4.700000
 31
0.000000
  0
LINE
  8
20
 10
1.675000
 20
4.700000
 30
0.000000
 11
1.550000
 21
4.700000
 31
0.000000
  0
LINE
  8
20
 10
1.550000
 20
4.700000
 30
0.000000
 11
1.550000
 21
4.950000
 31
0.000000
  0
LINE
  8
20
 10
1.550000
 20
4.950000
 30
0.000000
 11
1.675000
 21
4.950000
 31
0.000000
  0
LINE
  8
20
 10
1.675000
 20
4.950000
 30
0.000000
 11
1.675000
 21
5.200000
 31
0.000000
  0
LINE
  8
20
 10
1.675000
 20
5.200000
 30
0.000000
 11
2.675000
 21
5.200000
 31
0.000000
  0
LINE
  8
20
 10
2.675000
 20
5.200000
 30
0.000000
 11
2.675000
 21
4.950000
 31
0.000000
  0
LINE
  8
20
 10
4.050000
 20
4.950000
 30
0.000000
 11
4.175000
 21
4.950000
 31
0.000000
  0
LINE
  8
20
 10
4.175000
 20
4.950000
 30
0.000000
 11
4.175000
 21
4.700000
 31
0.000000
  0
LINE
  8
20
 10
4.175000
 20
4.700000
 30
0.000000
 11
4.050000
 21
4.700000
 31
0.000000
  0
LINE
  8
20
 10
4.050000
 20
4.700000
 30
0.000000
 11
4.050000
 21
4.450000
 31
0.000000
  0
LINE
  8
20
 10
4.050000
 20
4.450000
 30
0.000000
 11
3.050000
 21
4.450000
 31
0.000000
  0
LINE
  8
20
 10
3.050000
 20
4.450000
 30
0.000000
 11
3.050000
 21
4.700000
 31
0.000000
  0
LINE
  8
20
 10
3.050000
 20
4.700000
 30
0.000000
 11
2.925000
 21
4.700000
 31
0.000000
  0
LINE
  8
20
 10
2.925000
 20
4.700000
 30
0.000000
 11
2.925000
 21
4.950000
 31
0.000000
  0
LINE
  8
20
 10
2.925000
 20
4.950000
 30
0.000000
 11
3.050000
 21
4.950000
 31
0.000000
  0
LINE
  8
20
 10
3.050000
 20
4.950000
 30
0.000000
 11
3.050000
 21
5.200000
 31
0.000000
  0
LINE
  8
20
 10
3.050000
 20
5.200000
 30
0.000000
 11
4.050000
 21
5.200000
 31
0.000000
  0
LINE
  8
20
 10
4.050000
 20
5.200000
 30
0.000000
 11
4.050000
 21
4.950000
 31
0.000000
  0
LINE
  8
20
 10
5.425000
 20
4.950000
 30
0.000000
 11
5.550000
 21
4.950000
 31
0.000000
  0
LINE
  8
20
 10
5.550000
 20
4.950000
 30
0.000000
 11
5.550000
 21
4.700000
 31
0.000000
  0
LINE
  8
20
 10
5.550000
 20
4.700000
 30
0.000000
 11
5.425000
 21
4.700000
 31
0.000000
  0
LINE
  8
20
 10
5.425000
 20
4.700000
 30
0.000000
 11
5.425000
 21
4.450000
 31
0.000000
  0
LINE
  8
20
 10
5.425000
 20
4.450000
 30
0.000000
 11
4.425000
 21
4.450000
 31
0.000000
  0
LINE
  8
20
 10
4.425000
 20
4.450000
 30
0.000000
 11
4.425000
 21
4.700000
 31
0.000000
  0
LINE
  8
20
 10
4.425000
 20
4.700000
 30
0.000000
 11
4.300000
 21
4.700000
 31
0.000000
  0
LINE
  8
20
 10
4.300000
 20
4.700000
 30
0.000000
 11
4.300000
 21
4.950000
 31
0.000000
  0
LINE
  8
20
 10
4.300000
 20
4.950000
 30
0.000000
 11
4.425000
 21
4.950000
 31
0.000000
  0
LINE
  8
20
 10
4.425000
 20
4.950000
 30
0.000000
 11
4.425000
 21
5.200000
 31
0.000000
  0
LINE
  8
20
 10
4.425000
 20
5.200000
 30
0.000000
 11
5.425000
 21
5.200000
 31
0.000000
  0
LINE
  8
20
 10
5.425000
 20
5.200000
 30
0.000000
 11
5.425000
 21
4.950000
 31
0.000000
  0
LINE
  8
20
 10
6.800000
 20
4.950000
 30
0.000000
 11
6.925000
 21
4.950000
 31
0.000000
  0
LINE
  8
20
 10
6.925000
 20
4.950000
 30
0.000000
 11
6.925000
 21
4.700000
 31
0.000000
  0
LINE
  8
20
 10
6.925000
 20
4.700000
 30
0.000000
 11
6.800000
 21
4.700000
 31
0.000000
  0
LINE
  8
20
 10
6.800000
 20
4.700000
 30
0.000000
 11
6.800000
 21
4.450000
 31
0.000000
  0
LINE
  8
20
 10
6.800000
 20
4.450000
 30
0.000000
 11
5.800000
 21
4.450000
 31
0.000000
  0
LINE
  8
20
 10
5.800000
 20
4.450000
 30
0.000000
 11
5.800000
 21
4.700000
 31
0.000000
  0
LINE
  8
20
 10
5.800000
 20
4.700000
 30
0.000000
 11
5.675000
 21
4.700000
 31
0.000000
  0
LINE
  8
20
 10
5.675000
 20
4.700000
 30
0.000000
 11
5.675000
 21
4.950000
 31
0.000000
  0
LINE
  8
20
 10
5.675000
 20
4.950000
 30
0.000000
 11
5.800000
 21
4.950000
 31
0.000000
  0
LINE
  8
20
 10
5.800000
 20
4.950000
 30
0.000000
 11
5.800000
 21
5.200000
 31
0.000000
  0
LINE
  8
20
 10
5.800000
 20
5.200000
 30
0.000000
 11
6.800000
 21
5.200000
 31
0.000000
  0
LINE
  8
20
 10
6.800000
 20
5.200000
 30
0.000000
 11
6.800000
 21
4.950000
 31
0.000000
  0
LINE
  8
20
 10
2.374000
 20
5.306000
 30
0.000000
 11
2.374000
 21
6.056000
 31
0.000000
  0
ARC
  8
20
 10
0.729299
 20
5.699701
 30
0.000000
 40
0.356299
 50
90.000000
 51
180.000000
  0
LINE
  8
20
 10
0.729299
 20
6.056000
 30
0.000000
 11
2.374000
 21
6.056000
 31
0.000000
  0
ARC
  8
20
 10
0.766701
 20
5.699701
 30
0.000000
 40
0.393701
 50
180.000000
 51
270.000000
  0
LINE
  8
20
 10
0.766701
 20
5.306000
 30
0.000000
 11
2.374000
 21
5.306000
 31
0.000000
  0
LINE
  8
20
 10
4.499000
 20
5.306000
 30
0.000000
 11
4.499000
 21
6.056000
 31
0.000000
  0
ARC
  8
20
 10
2.854299
 20
5.699701
 30
0.000000
 40
0.356299
 50
90.000000
 51
180.000000
  0
LINE
  8
20
 10
2.854299
 20
6.056000
 30
0.000000
 11
4.499000
 21
6.056000
 31
0.000000
  0
ARC
  8
20
 10
2.891701
 20
5.699701
 30
0.000000
 40
0.393701
 50
180.000000
 51
270.000000
  0
LINE
  8
20
 10
2.891701
 20
5.306000
 30
0.000000
 11
4.499000
 21
5.306000
 31
0.000000
  0
CIRCLE
  8
20
 10
2.175000
 20
0.500000
 30
0.000000
 40
0.090000
  0
CIRCLE
  8
20
 10
2.175000
 20
1.625000
 30
0.000000
 40
0.090000
  0
CIRCLE
  8
20
 10
2.175000
 20
2.750000
 30
0.000000
 40
0.090000
  0
CIRCLE
  8
20
 10
4.022000
 20
2.735000
 30
0.000000
 40
0.291547
  0
CIRCLE
  8
20
 10
2.175000
 20
3.875000
 30
0.000000
 40
0.090000
  0
CIRCLE
  8
20
 10
4.022000
 20
3.860000
 30
0.000000
 40
0.291547
  0
CIRCLE
  8
20
 10
0.800000
 20
4.825000
 30
0.000000
 40
0.035000
  0
CIRCLE
  8
20
 10
0.800000
 20
5.700000
 30
0.000000
 40
0.035000
  0
CIRCLE
  8
20
 10
2.925000
 20
5.700000
 30
0.000000
 40
0.035000
  0
CIRCLE
  8
20
 10
2.175000
 20
4.825000
 30
0.000000
 40
0.035000
  0
CIRCLE
  8
20
 10
3.550000
 20
4.825000
 30
0.000000
 40
0.035000
  0
CIRCLE
  8
20
 10
4.925000
 20
4.825000
 30
0.000000
 40
0.035000
  0
CIRCLE
  8
20
 10
6.300000
 20
4.825000
 30
0.000000
 40
0.035000
  0
ENDSEC
  0
EOF
