  0
SECTION
  2
HEADER
  9
$ACADVER
  1
AC1009
  9
$FILLMODE
 70
0
  9
$EXTMIN
 10
0.000000
 20
0.000000
 30
0.000000
  9
$EXTMAX
 10
4.750000
 20
1.785761
 30
0.000000
  0
ENDSEC
  0
SECTION
  2
TABLES
  0
TABLE
  2
LTYPE
 70
1
  0
LTYPE
  2
CONTINUOUS
 70
64
  3
Solid line
 72
65
 73
0
 40
0
  0
ENDTAB
  0
TABLE
  2
LAYER
 70
255
  0
LAYER
  2
20
 70
64
 62
253
  6
CONTINUOUS
  0
ENDTAB
  0
ENDSEC
  0
SECTION
  2
BLOCKS
  0
BLOCK
  8
0
  2
RECT
 70
64
 10
0.000000
 20
0.000000
 30
0.000000
  3
RECT
  0
SOLID
  8
0
 10
-0.500000
 20
-0.500000
 30
0.000000
 11
0.500000
 21
-0.500000
 31
0.000000
 12
-0.500000
 22
0.500000
 32
0.000000
 13
0.500000
 23
0.500000
 33
0.000000
  0
ENDBLK
  8
0
  0
BLOCK
  8
0
  2
PIE
 70
64
 10
0.000000
 20
0.000000
 30
0.000000
  3
PIE
  0
CIRCLE
  8
0
 10
0.000000
 20
0.000000
 30
0.000000
 40
0.500000
  0
ENDBLK
  8
0
  0
BLOCK
  8
0
  2
OCTAGONP
 70
64
 10
0.000000
 20
0.000000
 30
0.000000
  3
OCTAGONP
  0
POLYLINE
  8
0
 66
1
 10
0.000000
 20
0.000000
 30
0.000000
 40
0.000000
 41
0.000000
 70
1
  0
VERTEX
  8
0
 10
-0.500000
 20
-0.207107
 30
0.000000
  0
VERTEX
  8
0
 10
-0.500000
 20
0.207107
 30
0.000000
  0
VERTEX
  8
0
 10
-0.207107
 20
0.500000
 30
0.000000
  0
VERTEX
  8
0
 10
0.207107
 20
0.500000
 30
0.000000
  0
VERTEX
  8
0
 10
0.500000
 20
0.207107
 30
0.000000
  0
VERTEX
  8
0
 10
0.500000
 20
-0.207107
 30
0.000000
  0
VERTEX
  8
0
 10
0.207107
 20
-0.500000
 30
0.000000
  0
VERTEX
  8
0
 10
-0.207107
 20
-0.500000
 30
0.000000
  0
SEQEND
  8
0
  0
ENDBLK
  8
0
  0
BLOCK
  8
0
  2
SQUAREP
 70
64
 10
0.000000
 20
0.000000
 30
0.000000
  3
SQUAREP
  0
SOLID
  8
0
 10
-0.500000
 20
-0.500000
 30
0.000000
 11
0.500000
 21
-0.500000
 31
0.000000
 12
-0.500000
 22
0.500000
 32
0.000000
 13
0.500000
 23
0.500000
 33
0.000000
  0
ENDBLK
  8
0
  0
BLOCK
  8
0
  2
ROUNDP
 70
64
 10
0.000000
 20
0.000000
 30
0.000000
  3
ROUNDP
  0
CIRCLE
  8
0
 10
0.000000
 20
0.000000
 30
0.000000
 40
0.500000
  0
ENDBLK
  8
0
  0
BLOCK
  8
0
  2
ANNULUSP
 70
64
 10
0.000000
 20
0.000000
 30
0.000000
  3
ANNULUSP
  0
CIRCLE
  8
0
 10
0.000000
 20
0.000000
 30
0.000000
 40
0.500000
  0
ENDBLK
  8
0
  0
BLOCK
  8
0
  2
THERMALP
 70
64
 10
0.000000
 20
0.000000
 30
0.000000
  3
THERMALP
  0
LINE
  8
0
 10
-0.237868
 20
0.450000
 30
0.000000
 11
0.237868
 21
0.450000
 31
0.000000
  0
LINE
  8
0
 10
0.450000
 20
0.237868
 30
0.000000
 11
0.450000
 21
-0.237868
 31
0.000000
  0
LINE
  8
0
 10
0.237868
 20
-0.450000
 30
0.000000
 11
-0.237868
 21
-0.450000
 31
0.000000
  0
LINE
  8
0
 10
-0.450000
 20
-0.237868
 30
0.000000
 11
-0.450000
 21
0.237868
 31
0.000000
  0
ENDBLK
  8
0
  0
BLOCK
  8
0
  2
OCTAGONV
 70
64
 10
0.000000
 20
0.000000
 30
0.000000
  3
OCTAGONV
  0
POLYLINE
  8
0
 66
1
 10
0.000000
 20
0.000000
 30
0.000000
 40
0.000000
 41
0.000000
 70
1
  0
VERTEX
  8
0
 10
-0.500000
 20
-0.207107
 30
0.000000
  0
VERTEX
  8
0
 10
-0.500000
 20
0.207107
 30
0.000000
  0
VERTEX
  8
0
 10
-0.207107
 20
0.500000
 30
0.000000
  0
VERTEX
  8
0
 10
0.207107
 20
0.500000
 30
0.000000
  0
VERTEX
  8
0
 10
0.500000
 20
0.207107
 30
0.000000
  0
VERTEX
  8
0
 10
0.500000
 20
-0.207107
 30
0.000000
  0
VERTEX
  8
0
 10
0.207107
 20
-0.500000
 30
0.000000
  0
VERTEX
  8
0
 10
-0.207107
 20
-0.500000
 30
0.000000
  0
SEQEND
  8
0
  0
ENDBLK
  8
0
  0
BLOCK
  8
0
  2
SQUAREV
 70
64
 10
0.000000
 20
0.000000
 30
0.000000
  3
SQUAREV
  0
SOLID
  8
0
 10
-0.500000
 20
-0.500000
 30
0.000000
 11
0.500000
 21
-0.500000
 31
0.000000
 12
-0.500000
 22
0.500000
 32
0.000000
 13
0.500000
 23
0.500000
 33
0.000000
  0
ENDBLK
  8
0
  0
BLOCK
  8
0
  2
ROUNDV
 70
64
 10
0.000000
 20
0.000000
 30
0.000000
  3
ROUNDV
  0
CIRCLE
  8
0
 10
0.000000
 20
0.000000
 30
0.000000
 40
0.500000
  0
ENDBLK
  8
0
  0
BLOCK
  8
0
  2
ANNULUSV
 70
64
 10
0.000000
 20
0.000000
 30
0.000000
  3
ANNULUSV
  0
CIRCLE
  8
0
 10
0.000000
 20
0.000000
 30
0.000000
 40
0.500000
  0
ENDBLK
  8
0
  0
BLOCK
  8
0
  2
THERMALV
 70
64
 10
0.000000
 20
0.000000
 30
0.000000
  3
THERMALV
  0
LINE
  8
0
 10
-0.237868
 20
0.450000
 30
0.000000
 11
0.237868
 21
0.450000
 31
0.000000
  0
LINE
  8
0
 10
0.450000
 20
0.237868
 30
0.000000
 11
0.450000
 21
-0.237868
 31
0.000000
  0
LINE
  8
0
 10
0.237868
 20
-0.450000
 30
0.000000
 11
-0.237868
 21
-0.450000
 31
0.000000
  0
LINE
  8
0
 10
-0.450000
 20
-0.237868
 30
0.000000
 11
-0.450000
 21
0.237868
 31
0.000000
  0
ENDBLK
  8
0
  0
ENDSEC
  0
SECTION
  2
ENTITIES
  0
LINE
  8
20
 10
0.250000
 20
1.200000
 30
0.000000
 11
0.250000
 21
0.300000
 31
0.000000
  0
ARC
  8
20
 10
0.300000
 20
0.300000
 30
0.000000
 40
0.050000
 50
180.000000
 51
270.000000
  0
LINE
  8
20
 10
0.300000
 20
0.250000
 30
0.000000
 11
4.450000
 21
0.250000
 31
0.000000
  0
ARC
  8
20
 10
4.450000
 20
0.300000
 30
0.000000
 40
0.050000
 50
270.000000
 51
0.000000
  0
LINE
  8
20
 10
4.500000
 20
0.300000
 30
0.000000
 11
4.500000
 21
1.200000
 31
0.000000
  0
ARC
  8
20
 10
4.450000
 20
1.200000
 30
0.000000
 40
0.050000
 50
0.000000
 51
90.000000
  0
LINE
  8
20
 10
4.450000
 20
1.250000
 30
0.000000
 11
0.300000
 21
1.250000
 31
0.000000
  0
ARC
  8
20
 10
0.300000
 20
1.200000
 30
0.000000
 40
0.050000
 50
90.000000
 51
180.000000
  0
LINE
  8
20
 10
3.300000
 20
1.000000
 30
0.000000
 11
4.200000
 21
1.000000
 31
0.000000
  0
ARC
  8
20
 10
4.200000
 20
0.950000
 30
0.000000
 40
0.050000
 50
0.000000
 51
90.000000
  0
LINE
  8
20
 10
4.250000
 20
0.950000
 30
0.000000
 11
4.250000
 21
0.550000
 31
0.000000
  0
ARC
  8
20
 10
4.200000
 20
0.550000
 30
0.000000
 40
0.050000
 50
270.000000
 51
0.000000
  0
LINE
  8
20
 10
4.200000
 20
0.500000
 30
0.000000
 11
3.300000
 21
0.500000
 31
0.000000
  0
ARC
  8
20
 10
3.300000
 20
0.550000
 30
0.000000
 40
0.050000
 50
180.000000
 51
270.000000
  0
LINE
  8
20
 10
3.250000
 20
0.550000
 30
0.000000
 11
3.250000
 21
0.950000
 31
0.000000
  0
ARC
  8
20
 10
3.300000
 20
0.950000
 30
0.000000
 40
0.050000
 50
90.000000
 51
180.000000
  0
LINE
  8
20
 10
1.472441
 20
0.880906
 30
0.000000
 11
0.527559
 21
0.880906
 31
0.000000
  0
LINE
  8
20
 10
0.527559
 20
0.880906
 30
0.000000
 11
0.527559
 21
0.369094
 31
0.000000
  0
LINE
  8
20
 10
0.527559
 20
0.369094
 30
0.000000
 11
1.472441
 21
0.369094
 31
0.000000
  0
LINE
  8
20
 10
1.472441
 20
0.369094
 30
0.000000
 11
1.472441
 21
0.880906
 31
0.000000
  0
CIRCLE
  8
20
 10
1.564961
 20
0.625000
 30
0.000000
 40
0.017717
  0
CIRCLE
  8
20
 10
0.435039
 20
0.625000
 30
0.000000
 40
0.017717
  0
LINE
  8
20
 10
2.847358
 20
1.130849
 30
0.000000
 11
1.902477
 21
1.130847
 31
0.000000
  0
LINE
  8
20
 10
1.902477
 20
1.130847
 30
0.000000
 11
1.902476
 21
0.619035
 31
0.000000
  0
LINE
  8
20
 10
1.902476
 20
0.619035
 30
0.000000
 11
2.847356
 21
0.619036
 31
0.000000
  0
LINE
  8
20
 10
2.847356
 20
0.619036
 30
0.000000
 11
2.847358
 21
1.130849
 31
0.000000
  0
CIRCLE
  8
20
 10
2.939875
 20
0.874941
 30
0.000000
 40
0.017717
  0
CIRCLE
  8
20
 10
1.809957
 20
0.874940
 30
0.000000
 40
0.017717
  0
ENDSEC
  0
EOF
